<svg width="11" height="11" viewBox="0 0 11 11" fill="none" xmlns="http://www.w3.org/2000/svg">
<path id="Vector" fill-rule="evenodd" clip-rule="evenodd" d="M1.37506 1.81269V7.37513C1.37506 7.61926 1.17713 7.81711 0.933073 7.81711C0.689014 7.81711 0.491089 7.61926 0.491089 7.37513V0.745695C0.491089 0.628489 0.53768 0.516073 0.620564 0.433189C0.703449 0.350305 0.815867 0.303711 0.933073 0.303711H7.56251C7.80664 0.303711 8.0045 0.50157 8.0045 0.745695C8.0045 0.989755 7.80664 1.18761 7.56251 1.18761H2.00007L10.0849 9.27248C10.2575 9.44507 10.2575 9.7249 10.0849 9.89749C9.91228 10.0701 9.63246 10.0701 9.45986 9.89749L1.37506 1.81269Z" fill="white"/>
</svg>
