<svg width="16" height="14" viewBox="0 0 16 14" fill="none" xmlns="http://www.w3.org/2000/svg">
<path d="M7.54802 3.23474C6.65481 3.23474 5.93066 3.9586 5.93066 4.8521C5.93066 5.7456 6.65481 6.46946 7.54802 6.46946C8.44124 6.46946 9.16538 5.7456 9.16538 4.8521C9.16538 3.9586 8.44124 3.23474 7.54802 3.23474Z" fill="white"/>
<path fill-rule="evenodd" clip-rule="evenodd" d="M0 1.3478C0 0.603095 0.603455 0 1.3478 0H13.7476C14.4919 0 15.0954 0.603095 15.0954 1.3478V8.35636C15.0954 9.10106 14.4919 9.70416 13.7476 9.70416H1.3478C0.603455 9.70416 0 9.10106 0 8.35636V1.3478ZM4.85208 4.85208C4.85208 3.36339 6.05892 2.15648 7.54768 2.15648C9.03644 2.15648 10.2433 3.36339 10.2433 4.85208C10.2433 6.34077 9.03644 7.54768 7.54768 7.54768C6.05892 7.54768 4.85208 6.34077 4.85208 4.85208ZM12.3998 4.31296C12.102 4.31296 11.8606 4.55448 11.8606 4.85208V4.85783C11.8606 5.15543 12.102 5.39695 12.3998 5.39695H12.4051C12.7029 5.39695 12.9443 5.15543 12.9443 4.85783V4.85208C12.9443 4.55448 12.7029 4.31296 12.4051 4.31296H12.3998ZM2.15648 4.85208C2.15648 4.55448 2.39786 4.31296 2.6956 4.31296H2.70099C2.99873 4.31296 3.24011 4.55448 3.24011 4.85208V4.85783C3.24011 5.15543 2.99873 5.39695 2.70099 5.39695H2.6956C2.39786 5.39695 2.15648 5.15543 2.15648 4.85783V4.85208Z" fill="white"/>
<path d="M0.53912 10.7823C0.241382 10.7823 0 11.0239 0 11.3215C0 11.6191 0.241382 11.8606 0.53912 11.8606C4.42078 11.8606 8.18039 12.3796 11.7527 13.3522C12.6085 13.5851 13.478 12.951 13.478 12.0439V11.3215C13.478 11.0239 13.2366 10.7823 12.9389 10.7823H0.53912Z" fill="white"/>
</svg>
