<svg width="13" height="16" viewBox="0 0 13 16" fill="none" xmlns="http://www.w3.org/2000/svg">
<g id="Group 1">
<path id="Vector" d="M12.9389 3.50428C12.9389 5.43965 10.0424 7.00856 6.46944 7.00856C2.89644 7.00856 0 5.43965 0 3.50428C0 1.56891 2.89644 0 6.46944 0C10.0424 0 12.9389 1.56891 12.9389 3.50428Z" fill="white"/>
<path id="Vector_2" d="M6.46944 8.08684C8.39963 8.08684 10.2005 7.6654 11.5576 6.93032C12.0536 6.66163 12.5254 6.32881 12.9207 5.93518C12.9328 6.02259 12.9389 6.11086 12.9389 6.19992C12.9389 8.13529 10.0424 9.7042 6.46944 9.7042C2.89644 9.7042 0 8.13529 0 6.19992C0 6.11086 0.00610936 6.02259 0.0181856 5.93518C0.413468 6.32881 0.885307 6.66163 1.3813 6.93032C2.73837 7.6654 4.53925 8.08684 6.46944 8.08684Z" fill="white"/>
<path id="Vector_3" d="M6.46944 10.7824C8.39963 10.7824 10.2005 10.361 11.5576 9.62588C12.0536 9.35719 12.5254 9.02437 12.9207 8.63074C12.9328 8.71815 12.9389 8.80642 12.9389 8.89548C12.9389 10.8309 10.0424 12.3998 6.46944 12.3998C2.89644 12.3998 0 10.8309 0 8.89548C0 8.80642 0.00610936 8.71815 0.0181856 8.63074C0.413468 9.02437 0.885307 9.35719 1.3813 9.62588C2.73837 10.361 4.53925 10.7824 6.46944 10.7824Z" fill="white"/>
<path id="Vector_4" d="M6.46944 13.4781C8.39963 13.4781 10.2005 13.0566 11.5576 12.3216C12.0536 12.0529 12.5254 11.72 12.9207 11.3264C12.9328 11.4138 12.9389 11.5021 12.9389 11.5912C12.9389 13.5265 10.0424 15.0954 6.46944 15.0954C2.89644 15.0954 0 13.5265 0 11.5912C0 11.5021 0.00610936 11.4138 0.0181856 11.3264C0.413468 11.72 0.885307 12.0529 1.3813 12.3216C2.73837 13.0566 4.53925 13.4781 6.46944 13.4781Z" fill="white"/>
</g>
</svg>
