<svg width="18" height="18" viewBox="0 0 18 18" fill="none" xmlns="http://www.w3.org/2000/svg">
<path id="Vector" d="M1.34119 9.57768C1.34119 10.8779 2.25324 12.0101 3.53969 12.1993C4.4225 12.3293 5.31425 12.4292 6.21411 12.499V16.2706L9.52445 12.9603C9.7486 12.7361 10.0507 12.6094 10.3667 12.6005C11.9293 12.5567 13.4683 12.4218 14.9789 12.1993C16.2661 12.0101 17.1782 10.8787 17.1782 9.57768V4.69012C17.1782 3.38905 16.2661 2.25772 14.9789 2.06849C13.1125 1.79398 11.2032 1.65186 9.25969 1.65186C7.31702 1.65186 5.40683 1.79398 3.53969 2.06849C2.25324 2.25772 1.34119 3.38986 1.34119 4.69012V9.57768Z" stroke="#BDBDBD" stroke-width="1.5" stroke-linecap="round" stroke-linejoin="round"/>
</svg>
