<svg width="13" height="12" viewBox="0 0 13 12" fill="none" xmlns="http://www.w3.org/2000/svg">
<path d="M1.88692 0C0.844837 0 0 0.844621 0 1.88692C0 2.92922 0.844837 3.77384 1.88692 3.77384H11.052C12.094 3.77384 12.9389 2.92922 12.9389 1.88692C12.9389 0.844621 12.094 0 11.052 0H1.88692Z" fill="white"/>
<path d="M0.53912 5.39117C0.241382 5.39117 0 5.6327 0 5.93029C0 6.22789 0.241382 6.46941 0.53912 6.46941H12.3998C12.6975 6.46941 12.9389 6.22789 12.9389 5.93029C12.9389 5.6327 12.6975 5.39117 12.3998 5.39117H0.53912Z" fill="white"/>
<path d="M0 8.62591C0 8.32832 0.241382 8.08679 0.53912 8.08679H12.3998C12.6975 8.08679 12.9389 8.32832 12.9389 8.62591C12.9389 8.92351 12.6975 9.16503 12.3998 9.16503H0.53912C0.241382 9.16503 0 8.92351 0 8.62591Z" fill="white"/>
<path d="M0.53912 10.7824C0.241382 10.7824 0 11.0239 0 11.3215C0 11.6191 0.241382 11.8606 0.53912 11.8606H12.3998C12.6975 11.8606 12.9389 11.6191 12.9389 11.3215C12.9389 11.0239 12.6975 10.7824 12.3998 10.7824H0.53912Z" fill="white"/>
</svg>
