<svg width="38" height="34" viewBox="0 0 38 34" fill="none" xmlns="http://www.w3.org/2000/svg">
<g id="Group 10">
<path id="Vector" d="M14.1117 2.50853C12.3798 2.50853 10.976 3.91231 10.976 5.6442C10.976 7.37609 12.3798 8.77986 14.1117 8.77986H17.2474V16.3055H4.07756C2.34567 16.3055 0.941895 14.9017 0.941895 13.1698V11.9155C0.941895 10.1836 2.34567 8.77986 4.07756 8.77986H9.41773C8.81769 7.88281 8.46749 6.80414 8.46749 5.6442C8.46749 2.52659 10.9941 0 14.1117 0C15.8847 0 17.4671 0.817786 18.5016 2.09613C19.5361 0.817786 21.1185 0 22.8916 0C26.0092 0 28.5358 2.52659 28.5358 5.6442C28.5358 6.80414 28.1856 7.88281 27.5855 8.77986H34.1799C35.9118 8.77986 37.3156 10.1836 37.3156 11.9155V13.1698C37.3156 14.9017 35.9118 16.3055 34.1799 16.3055H19.7559V8.77986H22.8916C24.6234 8.77986 26.0272 7.37609 26.0272 5.6442C26.0272 3.91231 24.6234 2.50853 22.8916 2.50853C21.1597 2.50853 19.7559 3.91231 19.7559 5.6442V8.77986H17.2474V5.6442C17.2474 3.91231 15.8436 2.50853 14.1117 2.50853Z" fill="white"/>
<path id="Vector_2" d="M17.2474 18.756H3.45044V30.0444C3.45044 32.1224 5.13517 33.8072 7.21324 33.8072H17.2474V18.756Z" fill="white"/>
<path id="Vector_3" d="M19.7559 18.756V33.8072H31.0443C33.1223 33.8072 34.8071 32.1224 34.8071 30.0444V18.756H19.7559Z" fill="white"/>
</g>
</svg>
