<svg width="28" height="37" viewBox="0 0 28 37" fill="none" xmlns="http://www.w3.org/2000/svg">
<path fill-rule="evenodd" clip-rule="evenodd" d="M3.19206 0.942017H8.83626C12.3 0.942017 15.1076 3.74957 15.1076 7.21335V10.349C15.1076 12.0809 16.5114 13.4847 18.2433 13.4847H21.3789C24.8427 13.4847 27.6503 16.2922 27.6503 19.756V32.9258C27.6503 34.6577 26.2465 36.0615 24.5146 36.0615H3.19206C1.46017 36.0615 0.0563965 34.6577 0.0563965 32.9258V4.07768C0.0563965 2.34579 1.46017 0.942017 3.19206 0.942017ZM10.0905 27.2816C10.0905 26.5893 9.52861 26.0273 8.83626 26.0273C8.1439 26.0273 7.58199 26.5893 7.58199 27.2816V28.5359C7.58199 29.2282 8.1439 29.7901 8.83626 29.7901C9.52861 29.7901 10.0905 29.2282 10.0905 28.5359V27.2816ZM13.8533 22.2645C14.5457 22.2645 15.1076 22.8265 15.1076 23.5188V28.5359C15.1076 29.2282 14.5457 29.7901 13.8533 29.7901C13.161 29.7901 12.5991 29.2282 12.5991 28.5359V23.5188C12.5991 22.8265 13.161 22.2645 13.8533 22.2645ZM20.1247 19.756C20.1247 19.0637 19.5627 18.5017 18.8704 18.5017C18.178 18.5017 17.6161 19.0637 17.6161 19.756V28.5359C17.6161 29.2282 18.178 29.7901 18.8704 29.7901C19.5627 29.7901 20.1247 29.2282 20.1247 28.5359V19.756Z" fill="white"/>
<path d="M17.6161 7.2133C17.6161 5.01784 16.8103 3.01 15.4778 1.47076C21.1621 2.95481 25.6373 7.43004 27.1214 13.1144C25.5821 11.7818 23.5743 10.9761 21.3789 10.9761H18.2432C17.897 10.9761 17.6161 10.6951 17.6161 10.349V7.2133Z" fill="white"/>
</svg>
