<svg width="33" height="37" viewBox="0 0 33 37" fill="none" xmlns="http://www.w3.org/2000/svg">
<path id="Vector" fill-rule="evenodd" clip-rule="evenodd" d="M8.62464 8.46761V9.72188H5.30143C3.69677 9.72188 2.351 10.933 2.18302 12.5294L0.0705401 32.5977C-0.124323 34.449 1.32731 36.0615 3.18905 36.0615H29.1117C30.9734 36.0615 32.4251 34.449 32.2301 32.5977L30.1177 12.5294C29.9497 10.933 28.604 9.72188 26.9992 9.72188H23.6758V8.46761C23.6758 4.31148 20.3065 0.942017 16.1502 0.942017C11.994 0.942017 8.62464 4.31148 8.62464 8.46761ZM16.1502 3.45055C13.3794 3.45055 11.1332 5.69719 11.1332 8.46761V9.72188H21.1673V8.46761C21.1673 5.69719 18.9211 3.45055 16.1502 3.45055ZM11.1332 17.2475C11.1332 20.0179 13.3794 22.2645 16.1502 22.2645C18.9211 22.2645 21.1673 20.0179 21.1673 17.2475V15.9932C21.1673 15.3009 21.7288 14.7389 22.4216 14.7389C23.1143 14.7389 23.6758 15.3009 23.6758 15.9932V17.2475C23.6758 21.4036 20.3065 24.7731 16.1502 24.7731C11.994 24.7731 8.62464 21.4036 8.62464 17.2475V15.9932C8.62464 15.3009 9.18615 14.7389 9.8789 14.7389C10.5717 14.7389 11.1332 15.3009 11.1332 15.9932V17.2475Z" fill="white"/>
</svg>
