<svg width="37" height="26" viewBox="0 0 37 26" fill="none" xmlns="http://www.w3.org/2000/svg">
<path id="Vector" fill-rule="evenodd" clip-rule="evenodd" d="M0.941895 3.74315C0.941895 2.01136 2.34567 0.607483 4.07756 0.607483H32.9257C34.6576 0.607483 36.0613 2.01136 36.0613 3.74315V8.80426C36.0613 9.25199 35.8225 9.66579 35.4352 9.88996C34.3074 10.5425 33.5528 11.7589 33.5528 13.1501C33.5528 14.5414 34.3074 15.7578 35.4352 16.4103C35.8225 16.6345 36.0613 17.0483 36.0613 17.496V22.5571C36.0613 24.2889 34.6576 25.6928 32.9257 25.6928H4.07756C2.34567 25.6928 0.941895 24.2889 0.941895 22.5571V17.496C0.941895 17.0483 1.1807 16.6345 1.56802 16.4103C2.69585 15.7578 3.45043 14.5414 3.45043 13.1501C3.45043 11.7589 2.69585 10.5425 1.56802 9.88996C1.1807 9.66579 0.941895 9.25199 0.941895 8.80426V3.74315ZM26.0272 1.86175C26.7196 1.86175 27.2815 2.42326 27.2815 3.11602V4.37028C27.2815 5.06304 26.7196 5.62455 26.0272 5.62455C25.3349 5.62455 24.773 5.06304 24.773 4.37028V3.11602C24.773 2.42326 25.3349 1.86175 26.0272 1.86175ZM27.2815 9.38735C27.2815 8.69459 26.7196 8.13308 26.0272 8.13308C25.3349 8.13308 24.773 8.69459 24.773 9.38735V10.6416C24.773 11.3344 25.3349 11.8959 26.0272 11.8959C26.7196 11.8959 27.2815 11.3344 27.2815 10.6416V9.38735ZM26.0272 14.4044C26.7196 14.4044 27.2815 14.9659 27.2815 15.6587V16.9129C27.2815 17.6057 26.7196 18.1672 26.0272 18.1672C25.3349 18.1672 24.773 17.6057 24.773 16.9129V15.6587C24.773 14.9659 25.3349 14.4044 26.0272 14.4044ZM27.2815 21.93C27.2815 21.2373 26.7196 20.6757 26.0272 20.6757C25.3349 20.6757 24.773 21.2373 24.773 21.93V23.1843C24.773 23.877 25.3349 24.4385 26.0272 24.4385C26.7196 24.4385 27.2815 23.877 27.2815 23.1843V21.93ZM8.46749 13.1501C8.46749 12.4574 9.0294 11.8959 9.72176 11.8959H18.5016C19.194 11.8959 19.7559 12.4574 19.7559 13.1501C19.7559 13.8429 19.194 14.4044 18.5016 14.4044H9.72176C9.0294 14.4044 8.46749 13.8429 8.46749 13.1501ZM9.72176 16.9129C9.0294 16.9129 8.46749 17.4745 8.46749 18.1672C8.46749 18.86 9.0294 19.4215 9.72176 19.4215H14.7388C15.4312 19.4215 15.9931 18.86 15.9931 18.1672C15.9931 17.4745 15.4312 16.9129 14.7388 16.9129H9.72176Z" fill="white"/>
</svg>
