<svg width="34" height="31" viewBox="0 0 34 31" fill="none" xmlns="http://www.w3.org/2000/svg">
<g id="Group 9">
<path id="Vector" d="M0.883301 4.48933C2.20991 3.31815 3.95274 2.60753 5.86154 2.60753H28.4383C30.3471 2.60753 32.0899 3.31815 33.4167 4.48933C33.1082 2.01431 30.9969 0.098999 28.4383 0.098999H5.86154C3.30293 0.098999 1.19165 2.01431 0.883301 4.48933Z" fill="white"/>
<path id="Vector_2" d="M0.883301 9.50636C2.20991 8.33518 3.95274 7.62456 5.86154 7.62456H28.4383C30.3471 7.62456 32.0899 8.33518 33.4167 9.50636C33.1082 7.03134 30.9969 5.11603 28.4383 5.11603H5.86154C3.30293 5.11603 1.19165 7.03134 0.883301 9.50636Z" fill="white"/>
<path id="Vector_3" d="M5.86179 10.1331C3.09097 10.1331 0.844727 12.3794 0.844727 15.1502V25.1843C0.844727 27.9551 3.09097 30.2014 5.86179 30.2014H28.4386C31.2094 30.2014 33.4556 27.9551 33.4556 25.1843V15.1502C33.4556 12.3794 31.2094 10.1331 28.4386 10.1331H22.1673C21.4745 10.1331 20.913 10.6946 20.913 11.3874C20.913 13.4656 19.2284 15.1502 17.1502 15.1502C15.072 15.1502 13.3874 13.4656 13.3874 11.3874C13.3874 10.6946 12.8259 10.1331 12.1331 10.1331H5.86179Z" fill="white"/>
</g>
</svg>
